<?xml version="1.0" standalone="no"?><!DOCTYPE svg PUBLIC "-//W3C//DTD SVG 1.1//EN" "http://www.w3.org/Graphics/SVG/1.1/DTD/svg11.dtd"><svg t="1594742257109" class="icon" viewBox="0 0 1024 1024" version="1.1" xmlns="http://www.w3.org/2000/svg" p-id="2111" xmlns:xlink="http://www.w3.org/1999/xlink" width="48" height="48"><defs><style type="text/css"></style></defs><path d="M917.2992 490.7008l-384 0 0-384c0-11.776-9.6256-21.2992-21.2992-21.2992-11.776 0-21.2992 9.6256-21.2992 21.2992l0 384-384 0c-11.776 0-21.2992 9.6256-21.2992 21.2992s9.6256 21.2992 21.2992 21.2992l384 0 0 384c0 11.776 9.6256 21.2992 21.2992 21.2992 11.776 0 21.2992-9.6256 21.2992-21.2992l0-384 384 0c11.776 0 21.2992-9.6256 21.2992-21.2992S929.0752 490.7008 917.2992 490.7008z" p-id="2112" fill="#8a8a8a"></path></svg>