<?xml version="1.0" standalone="no"?><!DOCTYPE svg PUBLIC "-//W3C//DTD SVG 1.1//EN" "http://www.w3.org/Graphics/SVG/1.1/DTD/svg11.dtd"><svg t="1594299419880" class="icon" viewBox="0 0 1024 1024" version="1.1" xmlns="http://www.w3.org/2000/svg" p-id="3900" xmlns:xlink="http://www.w3.org/1999/xlink" width="48" height="48"><defs><style type="text/css"></style></defs><path d="M512 51.2C257.536 51.2 51.2 257.536 51.2 512c0 254.464 206.336 460.8 460.8 460.8 254.464 0 460.8-206.336 460.8-460.8C972.8 257.536 766.464 51.2 512 51.2zM512 921.6c-225.8944 0-409.6-183.7056-409.6-409.6s183.7056-409.6 409.6-409.6 409.6 183.7056 409.6 409.6S737.8944 921.6 512 921.6z" p-id="3901" fill="#8a8a8a"></path><path d="M730.4192 295.936l-2.3552-2.3552c-9.3184-9.3184-24.576-9.3184-33.8944 0L512 475.7504 329.8304 293.5808c-9.3184-9.3184-24.576-9.3184-33.8944 0l-2.3552 2.3552c-9.3184 9.3184-9.3184 24.576 0 33.8944L475.8528 512 293.5808 694.1696c-9.3184 9.3184-9.3184 24.576 0 33.8944l2.3552 2.3552c9.3184 9.3184 24.576 9.3184 33.8944 0L512 548.1472l182.1696 182.1696c9.3184 9.3184 24.576 9.3184 33.8944 0l2.3552-2.3552c9.3184-9.3184 9.3184-24.576 0-33.8944L548.2496 512l182.1696-182.1696C739.7376 320.512 739.7376 305.2544 730.4192 295.936z" p-id="3902" fill="#8a8a8a"></path></svg>