<?xml version="1.0" standalone="no"?><!DOCTYPE svg PUBLIC "-//W3C//DTD SVG 1.1//EN" "http://www.w3.org/Graphics/SVG/1.1/DTD/svg11.dtd"><svg t="1594299272667" class="icon" viewBox="0 0 1024 1024" version="1.1" xmlns="http://www.w3.org/2000/svg" p-id="2444" xmlns:xlink="http://www.w3.org/1999/xlink" width="48" height="48"><defs><style type="text/css"></style></defs><path d="M334.4384 709.632c23.552 3.6864 77.0048 7.68 101.7856 7.68 217.3952 0 363.3152-156.672 363.3152-340.992 0-184.32-182.3744-333.6192-363.3152-333.6192-217.7024 0-393.6256 149.4016-393.6256 333.6192 0 106.8032 41.984 197.4272 121.1392 262.656l0 166.4L334.4384 709.632zM85.2992 376.32c0-160.4608 157.3888-291.0208 350.9248-291.0208 151.3472 0 320.7168 124.416 320.7168 291.0208 0 170.0864-137.8304 298.2912-320.7168 298.2912-22.7328 0-74.3424-3.8912-95.1296-7.168l-14.6432-2.3552-12.9024 7.2704-107.1104 60.1088L206.4384 638.976l0-20.0704-15.5648-12.8C121.856 549.0688 85.2992 469.6064 85.2992 376.32z" p-id="2445" fill="#8a8a8a"></path><path d="M239.5136 375.7056m-42.7008 0a41.7 41.7 0 1 0 85.4016 0 41.7 41.7 0 1 0-85.4016 0Z" p-id="2446" fill="#8a8a8a"></path><path d="M414.0032 375.7056m-42.7008 0a41.7 41.7 0 1 0 85.4016 0 41.7 41.7 0 1 0-85.4016 0Z" p-id="2447" fill="#8a8a8a"></path><path d="M588.3904 375.7056m-42.7008 0a41.7 41.7 0 1 0 85.4016 0 41.7 41.7 0 1 0-85.4016 0Z" p-id="2448" fill="#8a8a8a"></path><path d="M845.4144 298.0864c6.8608 20.0704 9.6256 50.5856 9.0112 73.4208 57.4464 36.1472 79.9744 129.024 79.872 180.8384 0 91.9552-35.9424 170.2912-104.0384 226.4064l-17.1008 14.0288 0 22.1184 0 86.2208-100.7616-56.5248-14.2336-7.9872-16.0768 2.56c-20.7872 3.2768-71.9872 5.7344-94.5152 7.168-88.3712 5.4272-197.3248-69.12-219.7504-86.8352-19.0464-0.6144-37.4784-1.2288-59.5968-2.9696 52.8384 79.1552 155.7504 136.704 279.4496 136.704 24.7808 0 78.336-3.9936 101.888-7.68L860.16 981.2992 860.16 815.0016c79.1552-65.2288 121.1392-155.8528 121.1392-262.656C981.2992 466.2272 947.0976 358.7072 845.4144 298.0864z" p-id="2449" fill="#8a8a8a"></path></svg>