<?xml version="1.0" standalone="no"?><!DOCTYPE svg PUBLIC "-//W3C//DTD SVG 1.1//EN" "http://www.w3.org/Graphics/SVG/1.1/DTD/svg11.dtd"><svg t="1594262012154" class="icon" viewBox="0 0 1024 1024" version="1.1" xmlns="http://www.w3.org/2000/svg" p-id="2390" width="48" height="48" xmlns:xlink="http://www.w3.org/1999/xlink"><defs><style type="text/css"></style></defs><path d="M513.024 89.6c-135.8848 0-246.4768 110.592-246.4768 246.4768 0 100.352 60.416 186.6752 146.6368 225.1776-162.4064 48.64-265.3184 198.3488-266.1376 353.5872 0 0.2048-0.1024 0.3072-0.1024 0.512 0 0.1024 0.1024 0.2048 0.1024 0.3072 0 0.4096-0.1024 0.7168-0.1024 1.1264l0.3072 0c0.8192 9.728 8.704 17.5104 18.6368 17.5104 9.9328 0 17.92-7.7824 18.6368-17.5104l0.3072 0c0-189.6448 152.3712-334.1312 342.016-334.1312l0-0.7168c129.536-7.168 232.7552-114.5856 232.7552-245.8624C759.5008 200.192 648.9088 89.6 513.024 89.6zM513.024 544.768c-114.9952 0-208.5888-93.5936-208.5888-208.5888S398.0288 127.5904 513.024 127.5904c114.9952 0 208.5888 93.5936 208.5888 208.5888S628.0192 544.768 513.024 544.768z" p-id="2391" fill="#8a8a8a"></path><path d="M879.2064 915.3536c0-0.2048-0.1024-0.4096-0.1024-0.6144-0.7168-113.152-57.1392-229.9904-152.4736-298.2912l-0.2048 0.3072c-3.072-2.048-6.4512-3.584-10.4448-3.584-10.4448 0-18.944 8.4992-18.944 18.944 0 5.9392 2.8672 11.0592 7.168 14.5408l-0.2048 0.3072c85.9136 61.5424 137.216 156.16 137.216 269.9264l0.3072 0c0.7168 9.728 8.704 17.5104 18.6368 17.5104 9.9328 0 17.92-7.7824 18.6368-17.5104l0.3072 0c0-0.4096-0.1024-0.7168-0.1024-1.1264C879.104 915.5584 879.2064 915.456 879.2064 915.3536z" p-id="2392" fill="#8a8a8a"></path></svg>