<?xml version="1.0" standalone="no"?><!DOCTYPE svg PUBLIC "-//W3C//DTD SVG 1.1//EN" "http://www.w3.org/Graphics/SVG/1.1/DTD/svg11.dtd"><svg t="1594262207821" class="icon" viewBox="0 0 1024 1024" version="1.1" xmlns="http://www.w3.org/2000/svg" p-id="3621" data-spm-anchor-id="a313x.7781069.0.i19" xmlns:xlink="http://www.w3.org/1999/xlink" width="48" height="48"><defs><style type="text/css"></style></defs><path d="M186.1632 186.1632C6.2464 366.08 6.2464 657.92 186.1632 837.8368c179.9168 179.9168 471.7568 179.9168 651.6736 0 179.9168-179.9168 179.9168-471.7568 0-651.6736C657.92 6.2464 366.08 6.2464 186.1632 186.1632zM801.5872 801.5872c-159.744 159.744-419.5328 159.744-579.2768 0s-159.744-419.5328 0-579.2768 419.5328-159.744 579.2768 0S961.3312 641.9456 801.5872 801.5872z" p-id="3622" fill="#e8989a"></path><path d="M513.6384 204.8l-3.2768 0c-13.2096 0-23.9616 10.752-23.9616 23.9616l0 257.6384L228.7616 486.4c-13.2096 0-23.9616 10.752-23.9616 23.9616l0 3.2768c0 13.2096 10.752 23.9616 23.9616 23.9616L486.4 537.6l0 257.6384c0 13.2096 10.752 23.9616 23.9616 23.9616l3.2768 0c13.1072 0 23.9616-10.752 23.9616-23.9616L537.6 537.6l257.6384 0c13.2096 0 23.9616-10.752 23.9616-23.9616l0-3.2768c0-13.2096-10.752-23.9616-23.9616-23.9616L537.6 486.4l0-257.6384C537.6 215.552 526.848 204.8 513.6384 204.8z" p-id="3623" fill="#e8989a"></path></svg>