<?xml version="1.0" standalone="no"?><!DOCTYPE svg PUBLIC "-//W3C//DTD SVG 1.1//EN" "http://www.w3.org/Graphics/SVG/1.1/DTD/svg11.dtd"><svg t="1594301978838" class="icon" viewBox="0 0 1024 1024" version="1.1" xmlns="http://www.w3.org/2000/svg" p-id="2111" xmlns:xlink="http://www.w3.org/1999/xlink" width="48" height="48"><defs><style type="text/css"></style></defs><path d="M780.1856 91.3408C691.4048 73.728 578.9696 112.128 511.7952 232.7552c-60.416-109.7728-161.3824-165.9904-266.4448-145.1008-93.4912 18.5344-202.6496 109.568-202.6496 305.152 0 251.2896 439.808 529.1008 458.5472 540.8768l11.3664 7.168 11.3664-7.168c18.6368-11.776 457.5232-291.2256 457.5232-542.72C981.4016 198.9632 872.96 109.568 780.1856 91.3408zM512.4096 890.0608C443.4944 844.8 85.2992 599.6544 85.2992 392.704c0-169.6768 90.624-247.9104 168.2432-263.2704 11.4688-2.2528 22.9376-3.3792 34.304-3.3792 83.968 0 161.6896 61.2352 204.1856 164.0448l19.7632 47.9232 19.6608-48.0256C585.1136 159.5392 690.8928 117.3504 771.8912 133.12c101.2736 19.968 166.7072 121.0368 166.7072 257.6384C938.7008 597.9136 581.2224 844.5952 512.4096 890.0608z" p-id="2112" fill="#8a8a8a"></path></svg>