<?xml version="1.0" standalone="no"?><!DOCTYPE svg PUBLIC "-//W3C//DTD SVG 1.1//EN" "http://www.w3.org/Graphics/SVG/1.1/DTD/svg11.dtd"><svg t="1594262258201" class="icon" viewBox="0 0 1024 1024" version="1.1" xmlns="http://www.w3.org/2000/svg" p-id="3996" xmlns:xlink="http://www.w3.org/1999/xlink" width="48" height="48"><defs><style type="text/css"></style></defs><path d="M704 360.0384l-384 0c-11.776 0-21.2992 9.6256-21.2992 21.2992 0 11.776 9.6256 21.2992 21.2992 21.2992l384 0c11.776 0 21.2992-9.6256 21.2992-21.2992C725.2992 369.664 715.776 360.0384 704 360.0384z" p-id="3997" fill="#8a8a8a"></path><path d="M618.7008 488.0384 405.2992 488.0384c-11.776 0-21.2992 9.6256-21.2992 21.2992 0 11.776 9.6256 21.2992 21.2992 21.2992l213.2992 0c11.776 0 21.2992-9.6256 21.2992-21.2992C640 497.664 630.3744 488.0384 618.7008 488.0384z" p-id="3998" fill="#8a8a8a"></path><path d="M512 34.4064c-258.7648 0-469.2992 185.4464-469.2992 413.2864 0 122.9824 61.1328 237.7728 168.0384 316.6208l0 225.28 222.0032-134.7584c26.9312 4.096 53.6576 6.144 79.36 6.144 258.7648 0 469.2992-185.4464 469.2992-413.2864C981.2992 219.8528 770.7648 34.4064 512 34.4064zM512 818.3808c-25.8048 0-52.8384-2.2528-80.2816-6.8608l-7.7824-1.3312L253.3376 913.8176 253.3376 742.2976l-9.1136-6.3488C143.2576 664.9856 85.2992 560.0256 85.2992 447.6928 85.2992 243.3024 276.7872 77.1072 512 77.1072c235.3152 0 426.7008 166.2976 426.7008 370.5856S747.3152 818.3808 512 818.3808z" p-id="3999" fill="#8a8a8a"></path></svg>