<?xml version="1.0" standalone="no"?><!DOCTYPE svg PUBLIC "-//W3C//DTD SVG 1.1//EN" "http://www.w3.org/Graphics/SVG/1.1/DTD/svg11.dtd"><svg t="1594299340050" class="icon" viewBox="0 0 1024 1024" version="1.1" xmlns="http://www.w3.org/2000/svg" p-id="2964" xmlns:xlink="http://www.w3.org/1999/xlink" width="48" height="48"><defs><style type="text/css"></style></defs><path d="M958.5664 926.8224 730.7264 698.9824c133.2224-150.6304 128.3072-381.44-15.7696-525.5168C640 98.5088 541.696 61.1328 443.392 61.1328c-98.304 0-196.7104 37.376-271.5648 112.3328-149.7088 149.7088-149.7088 393.3184 0 543.0272C246.6816 791.3472 345.088 828.7232 443.392 828.7232c92.3648 0 184.4224-33.4848 257.3312-99.4304l227.6352 227.6352c7.8848 7.8848 20.8896 7.8848 28.7744 0l1.3312-1.3312C966.4512 947.6096 966.4512 934.7072 958.5664 926.8224zM202.0352 686.2848c-133.12-133.12-133.12-349.5936 0-482.7136 64.3072-64.3072 150.1184-99.84 241.3568-99.84 91.2384 0 177.0496 35.4304 241.3568 99.84 133.12 133.12 133.12 349.5936 0 482.7136-64.3072 64.3072-150.1184 99.84-241.3568 99.84C352.0512 786.1248 266.3424 750.6944 202.0352 686.2848z" p-id="2965" fill="#8a8a8a"></path></svg>